<svg width="483" height="120" fill="none" xmlns="http://www.w3.org/2000/svg"><rect width="483" height="120" rx="15" fill="#5668C2"/><path d="M0 15A15 15 0 0 1 15 0h106v120H15a15 15 0 0 1-15-15V15Z" fill="#37384F"/><path d="M95 19 54.49 45.56l-4 14.6L73.03 45.5 58.3 101h14.94L95 19ZM67.19 53.5 30.2 77.65 24 101h30.64L67.2 53.5ZM149.94 44.77h13c1.34 0 2.62.1 3.83.28 1.24.18 2.38.51 3.43.99a9.9 9.9 0 0 1 2.87 1.98c.86.84 1.6 1.93 2.2 3.25a19.24 19.24 0 0 1 1.4 4.77c.34 1.86.51 4.05.51 6.55 0 2.6-.15 4.85-.45 6.78-.3 1.91-.75 3.56-1.32 4.93a9.71 9.71 0 0 1-4.95 5.4c-1.05.5-2.21.83-3.48 1.02-1.26.19-2.6.28-4.04.28h-13V44.77Zm11.35 30.57c.86 0 1.7-.02 2.51-.05a8 8 0 0 0 2.26-.46 5.88 5.88 0 0 0 1.93-1.14 6.1 6.1 0 0 0 1.5-2.21c.42-.95.75-2.14.97-3.58.23-1.46.35-3.24.35-5.36 0-1.96-.1-3.62-.33-4.98-.22-1.37-.53-2.5-.94-3.4-.4-.9-.9-1.59-1.47-2.08-.56-.5-1.2-.88-1.9-1.12a8.35 8.35 0 0 0-2.32-.45c-.8-.05-1.66-.08-2.56-.08h-5.26v24.9h5.26Zm21.2-7.75c0-2.26.25-4.27.74-6.01a11.4 11.4 0 0 1 2.28-4.45 10.04 10.04 0 0 1 3.96-2.74c1.6-.63 3.5-.94 5.72-.94 2.21 0 4.12.31 5.7.94a9.8 9.8 0 0 1 3.97 2.74 11.4 11.4 0 0 1 2.28 4.45c.5 1.74.74 3.75.74 6.01 0 2.27-.25 4.3-.73 6.07a11.4 11.4 0 0 1-2.3 4.45 9.8 9.8 0 0 1-3.95 2.74c-1.6.62-3.5.94-5.71.94a15.6 15.6 0 0 1-5.72-.94 10.04 10.04 0 0 1-3.96-2.74 11.4 11.4 0 0 1-2.28-4.45c-.5-1.78-.74-3.8-.74-6.07Zm12.7 9.1a7.7 7.7 0 0 0 3.25-.59 4.5 4.5 0 0 0 1.93-1.75 7.6 7.6 0 0 0 .9-2.85c.18-1.13.26-2.43.26-3.9 0-1.46-.08-2.75-.25-3.87a7.4 7.4 0 0 0-.91-2.84 4.3 4.3 0 0 0-1.93-1.75c-.83-.4-1.92-.61-3.25-.61-1.32 0-2.4.2-3.23.6-.83.4-1.48.98-1.95 1.76a7.72 7.72 0 0 0-.94 2.84c-.16 1.12-.23 2.4-.23 3.86 0 1.48.07 2.78.23 3.91.17 1.12.48 2.07.94 2.85a4.67 4.67 0 0 0 1.95 1.75c.83.39 1.9.58 3.23.58Zm19.3-22.48h4.41l.74 1.98a22.92 22.92 0 0 1 6.32-2.3c1.23-.3 2.55-.44 3.96-.44 2.64 0 4.59.7 5.84 2.08 1.27 1.37 1.9 3.53 1.9 6.48V81h-6.01V62.74c0-.69-.05-1.28-.16-1.77-.08-.51-.28-.92-.58-1.22-.3-.32-.75-.56-1.32-.71a9.37 9.37 0 0 0-2.31-.23c-1.02 0-1.94.07-2.77.2a18 18 0 0 0-4.01.94V81h-6.02V54.21Zm30.59 19.2a10 10 0 0 1 .66-3.86 6.82 6.82 0 0 1 1.83-2.54 7.28 7.28 0 0 1 2.71-1.4c1.05-.28 2.18-.43 3.38-.43a24.3 24.3 0 0 1 5.9.66c.82.19 1.57.4 2.25.64v-2.5c0-.62-.02-1.14-.08-1.57-.03-.44-.1-.82-.2-1.14-.1-.32-.24-.6-.43-.81a3.77 3.77 0 0 0-.64-.64 5.47 5.47 0 0 0-2.23-.83c-.95-.17-2.18-.26-3.7-.26-.97 0-1.91.04-2.82.1a70.08 70.08 0 0 0-4.77.48v-4.2c.67-.28 1.5-.52 2.5-.74.85-.2 1.91-.36 3.18-.51a34.77 34.77 0 0 1 7.62-.1c.91.08 1.71.23 2.4.45.7.22 1.31.51 1.84.87a7.17 7.17 0 0 1 2.92 4.44c.15.66.25 1.42.3 2.28.07.85.1 1.84.1 2.98V81h-5.1l-.46-1.98a15.03 15.03 0 0 1-5.2 2.34c-1.04.28-2.18.43-3.43.43a14.6 14.6 0 0 1-3.91-.46 6.24 6.24 0 0 1-2.67-1.45 5.93 5.93 0 0 1-1.5-2.59c-.3-1.06-.45-2.36-.45-3.88Zm6.17 0c0 .74.1 1.34.28 1.78.18.44.45.77.81 1.01.35.22.79.37 1.3.43a14 14 0 0 0 6.27-.66c.67-.22 1.3-.47 1.9-.76v-4.65a34.92 34.92 0 0 0-5.76-.58c-.85 0-1.58.04-2.19.13-.59.07-1.08.23-1.47.48-.39.24-.68.58-.86 1.04a4.65 4.65 0 0 0-.28 1.78Zm27.01-14.2h-3.96v-5h3.96v-5.66l6.02-1.34v7h6.76v5h-6.76v14.4c0 .63.04 1.14.13 1.55.1.4.27.74.5.99.26.24.6.4 1.05.5.45.1 1.04.14 1.75.14.66 0 1.25-.01 1.78-.03a49.72 49.72 0 0 0 2.53-.23v4.01c-.59.24-1.22.45-1.9.64a20.65 20.65 0 0 1-4.7.6c-1.32 0-2.43-.12-3.35-.37a5.58 5.58 0 0 1-2.2-1.15 4.57 4.57 0 0 1-1.23-1.95 9.11 9.11 0 0 1-.38-2.77V59.21Zm18.23 8.1c0-2.79.37-5.08 1.1-6.88.72-1.8 1.69-3.2 2.89-4.24a9.98 9.98 0 0 1 4.11-2.13c1.54-.4 3.13-.6 4.75-.6 2.05 0 3.74.27 5.08.83a7.75 7.75 0 0 1 3.22 2.36c.8 1 1.36 2.2 1.68 3.6.32 1.41.48 2.96.48 4.65a50.6 50.6 0 0 1-.33 5.08H302.7c.02 1.2.14 2.22.38 3.05.25.81.66 1.48 1.22 2 .57.51 1.33.88 2.26 1.12.95.22 2.12.33 3.53.33 1.18 0 2.3-.02 3.32-.08a64.7 64.7 0 0 0 5.2-.55v4.21a26.4 26.4 0 0 1-5.83 1.45c-1.15.18-2.38.28-3.68.28-2 0-3.78-.26-5.33-.76a9.2 9.2 0 0 1-3.96-2.44 11.58 11.58 0 0 1-2.47-4.5c-.56-1.84-.84-4.1-.84-6.78Zm17.75-1.85v-.96a15 15 0 0 0-.2-2.64 3.93 3.93 0 0 0-.76-1.88c-.4-.5-.94-.86-1.65-1.1a9.25 9.25 0 0 0-2.85-.35c-1.27 0-2.3.15-3.12.46-.8.28-1.42.72-1.88 1.32-.44.57-.74 1.3-.91 2.15-.16.87-.23 1.87-.23 3h11.6Z" fill="#fff"/><path stroke="#4F5472" stroke-width="2" d="M348 0v120"/><path d="M349 0h119a15 15 0 0 1 15 15v90a15 15 0 0 1-15 15H349V0Z" fill="#37384F"/><path d="M384.03 52.56V81h-3.6V52.56h3.6Zm9.24 11.82V81h-3.46V59.87h3.26l.2 4.5Zm-.84 5.25-1.41-.06c-.01-1.44.15-2.78.49-4 .35-1.24.84-2.31 1.48-3.22a7 7 0 0 1 2.33-2.11c.9-.51 1.9-.76 2.99-.76.85 0 1.63.14 2.34.43.7.27 1.3.71 1.8 1.32.49.62.87 1.41 1.13 2.39.27.96.4 2.14.4 3.53V81h-3.45V67.11c0-1.1-.12-1.99-.37-2.65a2.63 2.63 0 0 0-1.1-1.47 3.31 3.31 0 0 0-1.83-.47c-.68 0-1.3.2-1.9.57-.58.38-1.1.9-1.54 1.56a8.52 8.52 0 0 0-1.01 2.29c-.24.84-.35 1.74-.35 2.7Zm27.83 7.27V51h3.44v30h-3.15l-.3-4.1Zm-11.82-5.45v-1.97c0-1.75.17-3.25.5-4.5.35-1.26.83-2.3 1.45-3.1a5.77 5.77 0 0 1 2.25-1.82 7 7 0 0 1 2.9-.58c1.08 0 2.02.22 2.8.66.8.44 1.46 1.09 2 1.93.53.84.95 1.85 1.25 3.05.3 1.19.52 2.53.62 4.02v2.64a22.73 22.73 0 0 1-.64 4c-.3 1.19-.72 2.2-1.25 3.03a5.58 5.58 0 0 1-2 1.92c-.79.44-1.73.66-2.83.66-1.04 0-1.99-.2-2.85-.6a6.33 6.33 0 0 1-2.25-1.86 9.16 9.16 0 0 1-1.44-3.1c-.34-1.26-.5-2.71-.5-4.38Zm3.46-1.97v1.97c0 1.17.08 2.2.25 3.07.17.86.44 1.57.8 2.14.37.56.83.98 1.39 1.25.57.28 1.26.41 2.05.41.96 0 1.75-.23 2.36-.7a4.98 4.98 0 0 0 1.47-1.85c.38-.79.68-1.63.9-2.52V67.7c-.13-.66-.32-1.3-.57-1.91a6.63 6.63 0 0 0-.94-1.67 3.75 3.75 0 0 0-3.18-1.6c-.8 0-1.49.15-2.07.43-.57.29-1.04.72-1.4 1.3-.36.57-.63 1.29-.8 2.16-.18.87-.26 1.9-.26 3.07Zm20.84-9.61V81h-3.44V59.87h3.44Zm-3.63-5.6c0-.6.16-1.09.48-1.5.33-.4.82-.6 1.47-.6s1.14.2 1.46.6c.34.41.51.9.51 1.5 0 .55-.17 1.03-.5 1.44-.33.39-.82.58-1.47.58s-1.14-.2-1.47-.58c-.32-.4-.48-.89-.48-1.45Zm19.45 23.12V65.92c0-.83-.13-1.5-.4-2.01a2.3 2.3 0 0 0-1.13-1.11 4.38 4.38 0 0 0-1.87-.35 3.8 3.8 0 0 0-1.9.44c-.51.3-.92.7-1.2 1.2-.28.5-.42 1.04-.42 1.64h-3.45c0-.76.16-1.5.49-2.25a6.8 6.8 0 0 1 3.7-3.46 7.73 7.73 0 0 1 2.96-.54c1.3 0 2.45.21 3.45.64a4.9 4.9 0 0 1 2.37 2.05c.57.95.86 2.22.86 3.8v10.42c0 .7.05 1.45.15 2.25.12.8.28 1.47.49 2.05V81h-3.57c-.17-.42-.3-.97-.4-1.66-.09-.7-.13-1.35-.13-1.95Zm.55-9.2.03 2.54h-2.4c-.82 0-1.57.09-2.24.27-.67.18-1.24.45-1.72.8-.48.34-.86.76-1.12 1.27-.24.5-.37 1.09-.37 1.74 0 .84.12 1.52.35 2.03.24.5.59.85 1.06 1.07.47.23 1.06.34 1.78.34.87 0 1.64-.2 2.3-.6.67-.41 1.18-.9 1.54-1.47.38-.58.56-1.11.53-1.6l.76 1.62c-.05.5-.22 1.06-.5 1.66a6.39 6.39 0 0 1-2.91 3.03c-.67.33-1.42.5-2.25.5-1.22 0-2.3-.23-3.22-.7a5.01 5.01 0 0 1-2.13-2.07 6.86 6.86 0 0 1-.76-3.38c0-1.02.17-1.95.52-2.81.35-.86.88-1.6 1.57-2.23a7.12 7.12 0 0 1 2.6-1.49c1.05-.35 2.27-.52 3.65-.52h2.93Z" fill="#fff"/></svg>