<svg fill="none" xmlns="http://www.w3.org/2000/svg" viewBox="0 0 561 116"><rect width="561" height="116" rx="37" fill="#388CDA"/><path d="M151.34 63.56c0-.5-.07-.96-.23-1.37-.14-.42-.42-.8-.82-1.13-.4-.35-.97-.7-1.7-1.04-.73-.34-1.67-.69-2.83-1.05a35.88 35.88 0 0 1-3.67-1.4 15.07 15.07 0 0 1-3.05-1.82 8.2 8.2 0 0 1-2.07-2.45c-.5-.92-.74-2-.74-3.22 0-1.18.26-2.26.78-3.22a7.42 7.42 0 0 1 2.19-2.5 10.4 10.4 0 0 1 3.32-1.62c1.28-.38 2.7-.57 4.23-.57 2.1 0 3.93.38 5.5 1.13a8.78 8.78 0 0 1 3.63 3.11 7.98 7.98 0 0 1 1.3 4.51h-5.82c0-.83-.17-1.56-.52-2.19a3.57 3.57 0 0 0-1.57-1.5 5.57 5.57 0 0 0-2.61-.55c-1.02 0-1.87.16-2.54.47-.68.3-1.19.71-1.53 1.23-.34.51-.5 1.08-.5 1.72 0 .48.11.92.35 1.31.25.4.6.76 1.1 1.1.47.33 1.06.65 1.77.95.7.3 1.52.6 2.44.88a26 26 0 0 1 4.08 1.58c1.19.59 2.18 1.25 2.97 1.97.8.73 1.4 1.56 1.8 2.48.4.93.6 1.98.6 3.15a6.81 6.81 0 0 1-2.81 5.8c-.91.68-2 1.2-3.26 1.54a15.8 15.8 0 0 1-4.24.53c-1.4 0-2.8-.18-4.16-.55a12.64 12.64 0 0 1-3.73-1.7c-1.1-.75-2-1.71-2.66-2.89a8.3 8.3 0 0 1-1-4.16h5.89c0 .89.13 1.64.4 2.25.28.61.66 1.1 1.16 1.48.5.38 1.1.66 1.8.82.7.17 1.47.26 2.3.26 1.02 0 1.85-.14 2.5-.43a3.08 3.08 0 0 0 1.95-2.91Zm22 2.38V49.87h5.62V71h-5.3l-.32-5.06Zm.62-4.33 1.66-.04c0 1.4-.16 2.71-.49 3.92a9.37 9.37 0 0 1-1.46 3.13 6.84 6.84 0 0 1-2.46 2.05 7.9 7.9 0 0 1-3.5.72 9.1 9.1 0 0 1-2.85-.43 5.8 5.8 0 0 1-2.23-1.39 6.7 6.7 0 0 1-1.44-2.44c-.34-1-.51-2.2-.51-3.61V49.87h5.63v13.69c0 .62.07 1.15.21 1.58.16.43.37.78.64 1.06.28.27.6.46.96.58.38.12.8.18 1.25.18 1.16 0 2.07-.24 2.73-.7a3.7 3.7 0 0 0 1.43-1.92c.29-.82.43-1.73.43-2.73Zm14.92-7.68v25.2h-5.62V49.86h5.21l.41 4.06Zm13.38 6.27v.4c0 1.55-.18 2.97-.54 4.29a10.69 10.69 0 0 1-1.57 3.43 7.41 7.41 0 0 1-2.58 2.27c-1.01.53-2.18.8-3.51.8-1.29 0-2.41-.26-3.36-.78a7 7 0 0 1-2.4-2.19 12.67 12.67 0 0 1-1.55-3.3c-.39-1.25-.69-2.59-.9-4.02v-1.08c.21-1.53.51-2.94.9-4.22.4-1.28.9-2.4 1.55-3.34a6.98 6.98 0 0 1 2.38-2.2 6.84 6.84 0 0 1 3.34-.78 7.8 7.8 0 0 1 3.53.76 6.95 6.95 0 0 1 2.58 2.19 10 10 0 0 1 1.59 3.4c.36 1.3.54 2.77.54 4.37Zm-5.64.4v-.4c0-.9-.08-1.73-.24-2.48a6.44 6.44 0 0 0-.7-2.01 3.42 3.42 0 0 0-3.1-1.82c-.77 0-1.43.12-1.98.37-.53.25-.97.6-1.3 1.08-.35.46-.6 1.02-.77 1.68-.17.65-.27 1.38-.31 2.2v2.72c.06.96.25 1.83.55 2.6.3.75.76 1.35 1.38 1.8.63.43 1.45.66 2.46.66a3.4 3.4 0 0 0 1.88-.5c.5-.33.92-.8 1.23-1.38.32-.58.55-1.26.68-2.03.15-.77.22-1.6.22-2.48Zm14.76-6.67v25.2h-5.62V49.86h5.21l.41 4.06Zm13.38 6.27v.4c0 1.55-.18 2.97-.54 4.29a10.69 10.69 0 0 1-1.57 3.43 7.41 7.41 0 0 1-2.58 2.27c-1.01.53-2.18.8-3.51.8-1.29 0-2.41-.26-3.36-.78a7 7 0 0 1-2.4-2.19 12.67 12.67 0 0 1-1.55-3.3c-.39-1.25-.69-2.59-.9-4.02v-1.08c.21-1.53.51-2.94.9-4.22.4-1.28.9-2.4 1.55-3.34a6.98 6.98 0 0 1 2.38-2.2 6.84 6.84 0 0 1 3.34-.78 7.8 7.8 0 0 1 3.53.76 6.95 6.95 0 0 1 2.58 2.19 10 10 0 0 1 1.59 3.4c.36 1.3.54 2.77.54 4.37Zm-5.64.4v-.4c0-.9-.08-1.73-.24-2.48a6.44 6.44 0 0 0-.7-2.01 3.42 3.42 0 0 0-3.1-1.82c-.77 0-1.43.12-1.98.37-.53.25-.97.6-1.3 1.08-.35.46-.6 1.02-.77 1.68-.17.65-.27 1.38-.31 2.2v2.72c.06.96.25 1.83.55 2.6.3.75.76 1.35 1.38 1.8.63.43 1.45.66 2.46.66a3.4 3.4 0 0 0 1.88-.5c.5-.33.92-.8 1.23-1.38.32-.58.55-1.26.68-2.03.15-.77.22-1.6.22-2.48Zm8.24.05v-.41c0-1.55.22-2.98.66-4.28a9.9 9.9 0 0 1 1.94-3.42 8.66 8.66 0 0 1 3.12-2.24c1.24-.55 2.66-.82 4.26-.82 1.6 0 3.03.27 4.28.82a8.63 8.63 0 0 1 3.14 2.24c.86.97 1.51 2.1 1.96 3.42.44 1.3.66 2.73.66 4.28v.4c0 1.54-.22 2.97-.66 4.29a9.98 9.98 0 0 1-1.96 3.41 8.67 8.67 0 0 1-3.12 2.25c-1.24.53-2.66.8-4.26.8-1.6 0-3.03-.27-4.28-.8a8.85 8.85 0 0 1-3.14-2.25c-.85-.97-1.5-2.11-1.94-3.41a13.35 13.35 0 0 1-.66-4.28Zm5.62-.41v.4c0 .9.08 1.72.24 2.49.16.77.4 1.44.74 2.03.35.57.8 1.02 1.37 1.35.56.32 1.24.49 2.05.49a3.7 3.7 0 0 0 3.36-1.84c.34-.59.58-1.26.74-2.03.17-.77.25-1.6.25-2.48v-.41c0-.86-.08-1.67-.25-2.42a6.4 6.4 0 0 0-.76-2.03 3.79 3.79 0 0 0-1.35-1.41 3.86 3.86 0 0 0-2.03-.5c-.8 0-1.47.16-2.03.5-.55.34-1 .8-1.35 1.4a6.68 6.68 0 0 0-.74 2.04c-.16.75-.24 1.56-.24 2.42Zm23.48-5.76V71h-5.62V49.87h5.29l.33 4.6Zm6.37-4.75-.1 5.22c-.27-.04-.6-.08-1-.1a10.1 10.1 0 0 0-1.03-.06c-.8 0-1.49.1-2.07.31-.57.2-1.06.49-1.45.88-.37.4-.66.87-.86 1.43-.18.56-.28 1.2-.3 1.91l-1.14-.35c0-1.37.14-2.62.4-3.77.28-1.16.68-2.17 1.2-3.03a5.96 5.96 0 0 1 1.95-1.99c.77-.47 1.65-.7 2.64-.7a6.04 6.04 0 0 1 1.76.25Zm13.98.14v3.98h-12.3v-3.98h12.3Zm-9.25-5.22h5.62v19.98c0 .61.08 1.08.23 1.4.17.33.42.56.75.7.32.11.73.17 1.23.17a10 10 0 0 0 .93-.04l.73-.12.02 4.14a10.52 10.52 0 0 1-3.42.51c-1.24 0-2.32-.2-3.24-.6a4.47 4.47 0 0 1-2.11-2c-.5-.9-.75-2.1-.75-3.6V44.66Zm28.04 9.6V71h-5.64V49.87h5.29l.35 4.37Zm-.78 5.44h-1.56c0-1.47.17-2.82.53-4.06.36-1.25.89-2.33 1.58-3.24a7.26 7.26 0 0 1 2.6-2.15 7.98 7.98 0 0 1 3.57-.76c.94 0 1.8.14 2.58.43.78.27 1.45.7 2 1.3a5.84 5.84 0 0 1 1.34 2.31c.31.94.47 2.06.47 3.38V71h-5.63V57.52c0-.96-.13-1.7-.39-2.22a2.21 2.21 0 0 0-1.11-1.1 4.17 4.17 0 0 0-1.7-.3c-.73 0-1.37.14-1.92.44-.53.3-.97.72-1.32 1.25a5.6 5.6 0 0 0-.79 1.84c-.17.7-.25 1.45-.25 2.26Zm12.58-.64-2.01.25c0-1.38.17-2.66.5-3.85a9.71 9.71 0 0 1 1.55-3.12 7.1 7.1 0 0 1 2.56-2.1 7.76 7.76 0 0 1 3.51-.75c1.02 0 1.94.15 2.78.45a5.1 5.1 0 0 1 2.12 1.38c.6.63 1.06 1.45 1.37 2.46.33 1.02.49 2.26.49 3.73V71h-5.64V57.5a5 5 0 0 0-.4-2.22 2.05 2.05 0 0 0-1.09-1.08 4.12 4.12 0 0 0-1.68-.3 3.69 3.69 0 0 0-3.05 1.5c-.33.46-.59 1.01-.76 1.64a7.54 7.54 0 0 0-.25 2Zm26.95 12.34a11.8 11.8 0 0 1-4.41-.78 9.7 9.7 0 0 1-3.32-2.2 9.82 9.82 0 0 1-2.07-3.27 10.98 10.98 0 0 1-.73-3.98v-.78c0-1.6.23-3.07.69-4.4.45-1.33 1.1-2.48 1.95-3.46a8.58 8.58 0 0 1 3.13-2.24c1.22-.54 2.6-.8 4.14-.8 1.5 0 2.82.24 3.98.74a7.8 7.8 0 0 1 2.91 2.1c.8.92 1.4 2.01 1.8 3.29.4 1.26.6 2.67.6 4.22v2.34h-16.8v-3.75h11.28V58c0-.78-.15-1.48-.43-2.09a3.31 3.31 0 0 0-1.25-1.48 3.87 3.87 0 0 0-2.15-.55 3.6 3.6 0 0 0-1.92.49c-.53.32-.97.78-1.3 1.37a7.45 7.45 0 0 0-.75 2.07c-.15.78-.23 1.64-.23 2.58v.78c0 .84.12 1.62.35 2.34.25.72.6 1.33 1.04 1.86.45.52 1 .92 1.64 1.2.65.3 1.38.44 2.2.44 1.02 0 1.96-.2 2.84-.59.88-.4 1.64-1 2.28-1.82l2.74 2.97a8.31 8.31 0 0 1-1.82 1.84 9.7 9.7 0 0 1-2.74 1.44c-1.06.37-2.28.55-3.65.55Zm20.94-10.74v-.41c0-1.55.22-2.98.66-4.28a9.9 9.9 0 0 1 1.94-3.42A8.66 8.66 0 0 1 361 50.3c1.24-.55 2.66-.82 4.26-.82 1.6 0 3.03.27 4.28.82a8.62 8.62 0 0 1 3.14 2.24c.86.97 1.51 2.1 1.95 3.42.45 1.3.67 2.73.67 4.28v.4c0 1.54-.22 2.97-.67 4.29a9.96 9.96 0 0 1-1.95 3.41 8.66 8.66 0 0 1-3.12 2.25c-1.24.53-2.66.8-4.26.8-1.6 0-3.03-.27-4.28-.8a8.85 8.85 0 0 1-3.14-2.25c-.85-.97-1.5-2.11-1.94-3.41a13.32 13.32 0 0 1-.66-4.28Zm5.62-.41v.4c0 .9.08 1.72.24 2.49.16.77.4 1.44.74 2.03.35.57.8 1.02 1.37 1.35.56.32 1.24.49 2.05.49a3.72 3.72 0 0 0 3.36-1.84c.34-.59.58-1.26.74-2.03.17-.77.25-1.6.25-2.48v-.41c0-.86-.08-1.67-.25-2.42a6.38 6.38 0 0 0-.76-2.03 3.78 3.78 0 0 0-1.35-1.41 3.86 3.86 0 0 0-2.03-.5c-.8 0-1.47.16-2.03.5-.55.34-1 .8-1.35 1.4a6.71 6.71 0 0 0-.74 2.04c-.16.75-.24 1.56-.24 2.42Zm23.36-5.86V71h-5.62V49.87h5.27l.35 4.5Zm-.82 5.31h-1.52c0-1.56.2-2.97.6-4.22.4-1.26.98-2.33 1.7-3.22a7.3 7.3 0 0 1 2.6-2.05 7.83 7.83 0 0 1 3.4-.72c.99 0 1.9.14 2.71.43a5.2 5.2 0 0 1 2.12 1.36c.6.63 1.05 1.46 1.36 2.48.33 1.03.49 2.29.49 3.77V71h-5.66V57.5c0-.93-.13-1.66-.4-2.18a2.2 2.2 0 0 0-1.15-1.1 4.5 4.5 0 0 0-1.83-.33c-.76 0-1.42.15-1.98.45-.54.3-1 .72-1.36 1.25a5.9 5.9 0 0 0-.8 1.84c-.19.7-.28 1.45-.28 2.26Zm50.59-3.55V67.4a9.86 9.86 0 0 1-2.05 1.73 13.7 13.7 0 0 1-3.58 1.59c-1.45.44-3.22.66-5.29.66-1.83 0-3.5-.3-5.02-.9a10.85 10.85 0 0 1-3.9-2.67 12.08 12.08 0 0 1-2.5-4.3c-.6-1.7-.88-3.65-.88-5.84V55.9c0-2.19.28-4.13.84-5.84.57-1.7 1.38-3.14 2.44-4.31a10.44 10.44 0 0 1 3.77-2.68c1.46-.61 3.08-.92 4.86-.92 2.47 0 4.5.4 6.1 1.21a8.5 8.5 0 0 1 3.63 3.32 11.7 11.7 0 0 1 1.56 4.85h-5.68a7.27 7.27 0 0 0-.82-2.52 4.24 4.24 0 0 0-1.74-1.68c-.74-.4-1.7-.6-2.9-.6a5.18 5.18 0 0 0-4.53 2.34 8.7 8.7 0 0 0-1.19 2.85 16.95 16.95 0 0 0-.4 3.94v1.82c0 1.48.14 2.8.42 3.95.29 1.13.71 2.08 1.27 2.87a5.54 5.54 0 0 0 2.11 1.73c.84.4 1.8.59 2.91.59.93 0 1.7-.08 2.3-.23a4.73 4.73 0 0 0 2.4-1.23v-5.04h-5.34v-4.18h11.2Zm10.31-6.27V71h-5.64V49.87h5.64Zm-6-5.51c0-.82.3-1.5.86-2.03.58-.54 1.35-.8 2.31-.8.95 0 1.71.26 2.29.8.58.53.87 1.2.87 2.03 0 .82-.29 1.5-.88 2.03-.57.53-1.33.8-2.28.8-.96 0-1.73-.27-2.3-.8a2.66 2.66 0 0 1-.87-2.03Zm21 5.5v4h-12.3v-4h12.3Zm-9.26-5.2h5.63v19.97c0 .61.08 1.08.23 1.4.17.33.42.56.75.7.32.11.73.17 1.23.17a10 10 0 0 0 .93-.04l.73-.12.02 4.14a10.52 10.52 0 0 1-3.42.51c-1.24 0-2.32-.2-3.25-.6a4.47 4.47 0 0 1-2.1-2c-.5-.9-.75-2.1-.75-3.6V44.66ZM468.04 41v30h-5.62V41h5.62Zm-.8 18.7h-1.54c.01-1.48.2-2.83.59-4.07a9.98 9.98 0 0 1 1.62-3.24 7.08 7.08 0 0 1 5.8-2.91c1.04 0 1.98.15 2.83.45.86.28 1.6.75 2.2 1.4.63.64 1.11 1.48 1.45 2.52.34 1.04.5 2.3.5 3.8V71h-5.65V57.6c0-.94-.14-1.67-.42-2.2a2.26 2.26 0 0 0-1.15-1.16c-.5-.23-1.1-.35-1.83-.35-.81 0-1.5.15-2.07.45-.56.3-1.01.72-1.35 1.25a5.53 5.53 0 0 0-.74 1.84c-.16.7-.24 1.45-.24 2.26Zm30.24 6.24V49.87h5.62V71h-5.3l-.32-5.06Zm.62-4.33 1.66-.04c0 1.4-.16 2.71-.49 3.92a9.35 9.35 0 0 1-1.46 3.13 6.85 6.85 0 0 1-2.46 2.05 7.9 7.9 0 0 1-3.5.72 9.1 9.1 0 0 1-2.85-.43 5.8 5.8 0 0 1-2.23-1.39 6.72 6.72 0 0 1-1.44-2.44c-.34-1-.51-2.2-.51-3.61V49.87h5.63v13.69c0 .62.07 1.15.21 1.58.16.43.37.78.64 1.06.28.27.6.46.96.58.38.12.8.18 1.25.18 1.16 0 2.07-.24 2.74-.7a3.71 3.71 0 0 0 1.42-1.92c.29-.82.43-1.73.43-2.73ZM507.4 41h5.62v25.16l-.56 4.84h-5.06V41Zm19 19.22v.4c0 1.58-.17 3.03-.5 4.34a9.9 9.9 0 0 1-1.53 3.42 7.3 7.3 0 0 1-2.58 2.23 7.78 7.78 0 0 1-3.6.78c-1.28 0-2.4-.26-3.35-.78a6.81 6.81 0 0 1-2.36-2.2 12.52 12.52 0 0 1-1.55-3.35c-.39-1.27-.68-2.67-.88-4.18v-.9c.2-1.5.5-2.9.88-4.18.4-1.27.9-2.38 1.55-3.34a6.81 6.81 0 0 1 2.36-2.2 6.73 6.73 0 0 1 3.32-.78c1.4 0 2.6.26 3.63.8a6.85 6.85 0 0 1 2.58 2.22c.7.95 1.2 2.09 1.52 3.4.34 1.3.51 2.74.51 4.32Zm-5.62.4v-.4c0-.86-.07-1.67-.2-2.42a6.39 6.39 0 0 0-.62-2.01 3.54 3.54 0 0 0-1.23-1.4 3.5 3.5 0 0 0-1.98-.5c-.76 0-1.41.13-1.95.4-.53.25-.98.62-1.33 1.09-.34.46-.59 1.02-.76 1.67-.17.64-.27 1.35-.31 2.11v2.56a8.7 8.7 0 0 0 .5 2.74c.32.78.79 1.4 1.41 1.85.64.45 1.47.67 2.48.67.8 0 1.46-.16 1.98-.47.52-.31.92-.76 1.2-1.33.3-.57.51-1.24.63-2.01.12-.78.18-1.63.18-2.54Z" fill="#fff"/><path fill-rule="evenodd" clip-rule="evenodd" d="M70.5 20a37.49 37.49 0 0 0-11.86 73.08c1.88.33 2.58-.8 2.58-1.78 0-.9-.05-3.85-.05-6.99-9.42 1.74-11.86-2.3-12.6-4.4-.43-1.08-2.26-4.41-3.85-5.3-1.31-.7-3.19-2.44-.05-2.48 2.95-.05 5.06 2.71 5.77 3.84 3.37 5.67 8.76 4.08 10.92 3.1.33-2.44 1.31-4.09 2.39-5.02-8.34-.94-17.06-4.17-17.06-18.52a14.6 14.6 0 0 1 3.84-10.08c-.37-.93-1.69-4.78.38-9.93 0 0 3.14-.99 10.3 3.84 3-.84 6.2-1.27 9.38-1.27 3.2 0 6.38.43 9.38 1.27 7.17-4.88 10.31-3.84 10.31-3.84 2.06 5.15.75 9 .38 9.93a14.5 14.5 0 0 1 3.84 10.08c0 14.4-8.77 17.58-17.1 18.52 1.35 1.17 2.52 3.42 2.52 6.93 0 5.02-.05 9.05-.05 10.32 0 .98.7 2.15 2.58 1.78A37.56 37.56 0 0 0 108 57.5 37.49 37.49 0 0 0 70.5 20Z" fill="#F8F8F8"/></svg>